#define horizhatchdashed_width 10
#define horizhatchdashed_height 7
static unsigned char horizhatchdashed_bits[] = {
   0x00, 0x00, 0x00, 0x00, 0x00, 0x00, 0x1f, 0x00, 0x00, 0x00, 0x00, 0x00,
   0x00, 0x00 };
