#define lefthatchsolid_width 6
#define lefthatchsolid_height 6
static unsigned char lefthatchsolid_bits[] = {
   0x01, 0x02, 0x04, 0x08, 0x10, 0x20 };
