#define lefthatchdashed_width 10
#define lefthatchdashed_height 10
static unsigned char lefthatchdashed_bits[] = {
   0x00, 0x00, 0x00, 0x00, 0x00, 0x00, 0x00, 0x00, 0x00, 0x00, 0x20, 0x00,
   0x40, 0x00, 0x80, 0x00, 0x00, 0x01, 0x00, 0x02 };
