#define verthatchdashed_width 7
#define verthatchdashed_height 10
static unsigned char verthatchdashed_bits[] = {
   0x00, 0x00, 0x00, 0x00, 0x00, 0x08, 0x08, 0x08, 0x08, 0x08 };
